<svg width="498" height="178" viewBox="0 0 498 178" fill="none" xmlns="http://www.w3.org/2000/svg">
<path d="M45.999 144.431C46.0134 144.254 46.2344 143.919 46.3931 143.833L50.4048 141.696C51.3741 141.167 51.9702 139.949 51.7908 138.865C51.7908 138.865 51.6943 138.269 51.4699 137.399C51.2456 136.528 51.0418 135.96 51.0418 135.96C50.6647 134.911 49.5431 134.135 48.4323 134.153L43.908 134.228C43.7343 134.231 43.3724 134.041 43.2329 133.836L42.2911 132.584C42.1771 132.451 42.093 132.052 42.1439 131.885L43.4638 127.56C43.7948 126.479 43.3337 125.189 42.3363 124.523L39.8828 123.079C38.9054 122.577 37.5081 122.81 36.7427 123.6L33.4836 126.929C33.2713 127.045 33.0146 127.079 32.8419 127.048L31.2933 126.835C31.1179 126.819 30.7767 126.597 30.6946 126.441L28.5682 122.449C28.0437 121.466 26.8233 120.86 25.7258 121.041C25.7258 121.041 25.1303 121.138 24.2596 121.362C23.3888 121.587 22.8212 121.79 22.8212 121.79C22.7607 121.812 22.5284 121.917 22.4726 121.947C21.5977 122.424 20.9963 123.433 21.0142 124.4L21.0884 128.924C21.0913 129.098 20.9019 129.46 20.697 129.599L19.3875 130.58C19.1731 130.697 18.8592 130.724 18.7487 130.689L14.4241 129.37C13.3722 129.047 12.0991 129.422 11.3864 130.497L9.94442 132.949C9.42921 133.954 9.65206 135.306 10.4635 136.091L13.7129 139.234C13.8374 139.356 13.9583 139.746 13.9092 139.992L13.6963 141.541C13.6819 141.719 13.461 142.053 13.3023 142.14L9.2905 144.277C8.32123 144.805 7.72507 146.023 7.90453 147.107C7.90453 147.107 8.00107 147.703 8.22541 148.574C8.44975 149.444 8.65351 150.012 8.65351 150.012C9.03062 151.061 10.1522 151.837 11.2631 151.819L15.7874 151.744C15.961 151.742 16.323 151.931 16.4625 152.136L17.3997 153.386C17.5137 153.518 17.5978 153.917 17.5469 154.084L16.2271 158.409C15.896 159.49 16.3571 160.78 17.3545 161.446L19.8081 162.89C20.7843 163.39 22.1817 163.162 22.9493 162.371L26.2105 159.041C26.4228 158.925 26.6795 158.891 26.8522 158.922L28.4008 159.135C28.5762 159.151 28.9175 159.374 28.9995 159.529L31.1259 163.521C31.6504 164.504 32.8709 165.11 33.9683 164.929C33.9683 164.929 34.5638 164.832 35.4346 164.608C36.3053 164.383 36.873 164.18 36.873 164.18C36.9323 164.156 37.1646 164.051 37.2204 164.021C38.0953 163.544 38.6967 162.535 38.6788 161.568L38.6046 157.044C38.6017 156.87 38.7911 156.508 38.996 156.369L40.3067 155.39C40.5211 155.273 40.8349 155.247 40.9454 155.281L45.27 156.601C46.3186 156.922 47.5907 156.551 48.3077 155.473L49.753 153.022C50.2683 152.018 50.0454 150.665 49.2339 149.88L45.9846 146.737C45.8601 146.615 45.7391 146.225 45.7883 145.979L45.999 144.431ZM43.5719 144.163L43.3811 145.564C43.177 146.557 43.5584 147.787 44.286 148.489L47.5321 151.632C47.5755 151.686 47.602 151.847 47.6139 151.843L46.245 154.169L45.9828 154.265L41.6561 152.946C40.8893 152.713 39.8989 152.831 39.1355 153.247C38.9597 153.343 38.7996 153.452 38.7203 153.526L37.5866 154.38C36.7452 154.939 36.1451 156.079 36.1613 157.088L36.2364 161.609C36.2313 161.681 36.1383 161.832 36.0504 161.88C36.0256 161.891 35.5484 162.056 34.8229 162.246C34.0983 162.432 33.5997 162.518 33.5757 162.52C33.4941 162.528 33.3216 162.441 33.2799 162.375L31.1535 158.383C30.6781 157.49 29.6005 156.784 28.6645 156.71L27.2664 156.518C26.2987 156.32 25.0336 156.704 24.3411 157.423L21.1822 160.681C21.0921 160.73 20.9609 160.729 20.989 160.75L18.6628 159.381C18.6088 159.338 18.5552 159.184 18.5671 159.119L19.8858 154.792C20.1782 153.824 19.9171 152.564 19.3062 151.857L18.4539 150.722C17.8951 149.881 16.7557 149.281 15.7443 149.298L11.2233 149.373C11.1422 149.367 10.9853 149.258 10.9522 149.187C10.9415 149.162 10.7759 148.685 10.5862 147.96C10.3999 147.235 10.3144 146.737 10.3125 146.713C10.3041 146.631 10.3909 146.458 10.4572 146.417L14.4711 144.279C15.3524 143.798 16.0478 142.726 16.1221 141.801L16.3119 140.404C16.516 139.411 16.1346 138.181 15.407 137.479L12.1609 134.336C12.1186 134.284 12.091 134.121 12.0791 134.125L13.448 131.799L13.7102 131.703L18.0369 133.022C18.8037 133.255 19.7941 133.137 20.5575 132.721C20.7333 132.625 20.8934 132.516 20.9727 132.442L22.1064 131.588C22.9478 131.029 23.5478 129.889 23.5317 128.88L23.4566 124.359C23.4617 124.287 23.5547 124.136 23.6426 124.088C23.6673 124.077 24.1446 123.912 24.8701 123.722C25.5946 123.536 26.0933 123.45 26.1173 123.448C26.1989 123.44 26.3714 123.527 26.4131 123.593L28.5395 127.585C29.0149 128.478 30.0924 129.184 31.0284 129.258L32.4266 129.45C33.1224 129.593 33.9545 129.451 34.6536 129.07C34.9238 128.923 35.1601 128.744 35.3541 128.543L38.5129 125.286C38.6052 125.236 38.7328 125.23 38.7061 125.217L41.0324 126.585C41.0864 126.628 41.1399 126.783 41.128 126.848L39.8093 131.174C39.5169 132.143 39.778 133.403 40.3889 134.11L41.24 135.243C41.7989 136.084 42.9382 136.684 43.9497 136.667L48.4707 136.591C48.5518 136.597 48.7086 136.707 48.7418 136.777C48.7525 136.802 48.918 137.279 49.1077 138.005C49.2941 138.729 49.3795 139.228 49.3815 139.252C49.3898 139.334 49.3031 139.506 49.2368 139.548L45.2229 141.686C44.3415 142.167 43.6462 143.238 43.5719 144.163Z" fill="white" style="mix-blend-mode:plus-lighter"/>
<path d="M77.8625 150.071C77.8625 155.073 81.7323 159.143 86.4875 159.143C91.2428 159.143 95.1125 155.073 95.1125 150.071C95.1125 145.07 91.2428 141 86.4875 141C81.7323 141 77.8625 145.07 77.8625 150.071ZM92.2375 150.071C92.2375 153.407 89.6586 156.119 86.4875 156.119C83.3164 156.119 80.7375 153.407 80.7375 150.071C80.7375 146.736 83.3164 144.024 86.4875 144.024C89.6586 144.024 92.2375 146.736 92.2375 150.071Z" fill="white" style="mix-blend-mode:plus-lighter"/>
<path d="M40.8625 88.631C40.8625 97.8022 47.9551 105.262 56.675 105.262C65.3949 105.262 72.4875 97.8022 72.4875 88.631C72.4875 79.4597 65.3949 72 56.675 72C47.9551 72 40.8625 79.4597 40.8625 88.631ZM69.6125 88.631C69.6125 96.133 63.8079 102.238 56.675 102.238C49.5421 102.238 43.7375 96.133 43.7375 88.631C43.7375 81.1289 49.5421 75.0238 56.675 75.0238C63.8079 75.0238 69.6125 81.1289 69.6125 88.631Z" fill="white" style="mix-blend-mode:plus-lighter"/>
<path d="M49.3352 60.7903C49.2189 61.3047 48.6181 62.0032 48.0698 62.2049L45.7329 63.2278C45.2843 63.4587 44.3955 63.4149 43.9691 63.1401L37.6449 59.0572C36.2881 58.1834 34.3665 58.3646 33.1205 59.5395L29.8476 62.9969C28.8342 64.201 28.6515 66.3258 29.4461 67.7111L33.3143 74.3864C33.558 74.8043 33.6438 75.7016 33.3641 76.3299L32.4006 78.7937C32.2372 79.2906 31.5782 79.9248 31.0909 80.0475L23.8806 81.88C22.3522 82.2687 21.0951 83.809 20.9511 85.4632C20.9511 85.4632 20.8625 86.4773 20.8625 87.9971C20.8625 89.5168 20.9511 90.5339 20.9511 90.5339C21.0923 92.1852 22.3522 93.7254 23.8806 94.1141L31.0909 95.9495C31.5754 96.0723 32.2372 96.7036 32.4283 97.2823L33.3974 99.749C33.5995 100.184 33.558 101.193 33.3143 101.611L29.4461 108.286C29.1056 108.873 28.9256 109.575 28.9256 110.32C28.9256 111.328 29.2606 112.305 29.9002 113.062L33.1759 116.516C34.3637 117.633 36.2853 117.814 37.6421 116.94L43.9663 112.857C44.3927 112.582 45.2815 112.538 45.8076 112.804L48.1418 113.821C48.6125 113.994 49.2134 114.689 49.3297 115.204L51.0658 122.814C51.4341 124.428 52.8933 125.754 54.4605 125.906C54.4605 125.906 55.4213 126 56.8611 126C58.301 126 59.2645 125.906 59.2645 125.906C60.829 125.757 62.2882 124.428 62.6592 122.814L64.3926 115.207C64.5089 114.692 65.1097 113.994 65.658 113.792L67.9949 112.769C68.4435 112.538 69.3323 112.582 69.7587 112.857L76.0829 116.94C77.4397 117.814 79.3613 117.633 80.6073 116.458L83.8802 113C84.8964 111.793 85.0791 109.665 84.2817 108.286L80.4135 101.611C80.1726 101.193 80.0812 100.293 80.3636 99.6671L81.3272 97.2033C81.4906 96.7065 82.1496 96.0752 82.6369 95.9525L89.8472 94.1171C91.3756 93.7283 92.6327 92.1881 92.7767 90.5339C92.7739 90.5281 92.8625 89.5139 92.8625 87.9942C92.8625 86.4744 92.7739 85.4573 92.7739 85.4573C92.6327 83.806 91.3728 82.2658 89.8444 81.8742L82.6397 80.0446C82.1524 79.9219 81.4906 79.2876 81.2995 78.709L80.3304 76.2423C80.1283 75.8039 80.1726 74.7985 80.4135 74.3806L84.2817 67.7082C85.0791 66.3258 84.9407 64.2449 83.8276 62.9326L80.5519 59.4781C79.3641 58.3616 77.4424 58.1804 76.0857 59.0543L69.7615 63.1372C69.3351 63.4119 68.4462 63.4558 67.9202 63.1898L65.586 62.1727C65.1153 62.0003 64.5144 61.3047 64.3981 60.7903L62.662 53.1798C62.2937 51.5665 60.8345 50.2397 59.2673 50.0877C59.2673 50.0935 58.3065 50 56.8667 50C55.4268 50 54.4632 50.0935 54.4632 50.0935C52.8988 50.2426 51.4396 51.5724 51.0686 53.1857L49.3352 60.7903ZM56.8667 52.9226C58.1348 52.9226 58.9904 53.0015 59.0181 53.0045C59.3919 53.0395 59.882 53.4867 59.9706 53.8696L61.7067 61.4801C62.0445 62.956 63.3238 64.4436 64.6058 64.9054L66.7849 65.8523C68.078 66.5187 69.9775 66.4252 71.2069 65.6331L77.5283 61.5502C77.8356 61.3544 78.4448 61.4099 78.6525 61.6028L81.8146 64.9375C82.0388 65.2035 82.0942 65.8816 81.9198 66.1855L78.0516 72.8608C77.3178 74.1263 77.268 76.2949 77.8079 77.4435L78.7106 79.7465C79.1786 81.1815 80.5879 82.5318 81.989 82.8883L89.1965 84.7179C89.562 84.8114 89.9856 85.3287 90.0188 85.7233C90.0188 85.7525 90.0936 86.6556 90.0936 87.9942C90.0936 89.3327 90.0188 90.2358 90.0161 90.265C89.9828 90.6596 89.5592 91.1769 89.1965 91.2704L81.989 93.1029C80.5907 93.4595 79.1785 94.8068 78.7411 96.1629L77.8439 98.463C77.2237 99.7986 77.3206 101.868 78.0516 103.13L81.9198 109.803C82.0942 110.107 82.0028 110.826 81.8699 110.989L78.7106 114.327C78.442 114.578 77.8356 114.634 77.5283 114.438L71.2041 110.355C69.9775 109.563 68.0752 109.47 66.8624 110.098L64.6805 111.051C63.321 111.545 62.0418 113.032 61.704 114.511L59.9706 122.119C59.882 122.505 59.3919 122.952 59.0181 122.987C58.9904 122.987 58.1348 123.066 56.8667 123.066C55.5985 123.066 54.7429 122.987 54.7152 122.984C54.3414 122.949 53.8513 122.502 53.7627 122.119L52.0266 114.508C51.6888 113.032 50.4096 111.545 49.1276 111.083L46.9484 110.136C45.6553 109.47 43.7559 109.563 42.5265 110.355L36.205 114.438C35.8977 114.634 35.2885 114.578 35.0809 114.385L31.9188 111.051C31.7859 110.893 31.7 110.607 31.7 110.317C31.7 110.116 31.7416 109.928 31.8136 109.806L35.6817 103.13C36.4127 101.868 36.4653 99.6993 35.9254 98.5478L35.0227 96.2447C34.5548 94.8097 33.1426 93.4595 31.7443 93.1058L24.5369 91.2733C24.1714 91.1798 23.7477 90.6625 23.7145 90.268C23.7145 90.2358 23.6397 89.3327 23.6397 87.9942C23.6397 86.6556 23.7145 85.7525 23.7173 85.7233C23.7505 85.3287 24.1741 84.8114 24.5369 84.7179L31.7471 82.8854C33.1454 82.5288 34.5548 81.1786 34.9923 79.8254L35.8894 77.5253C36.1663 76.9291 36.3103 76.2072 36.3103 75.4356C36.3103 74.4741 36.086 73.5593 35.679 72.8579L31.8108 66.1855C31.6363 65.8816 31.7305 65.1597 31.8606 64.9989L35.0227 61.6613C35.2913 61.4099 35.8977 61.3544 36.205 61.5502L42.5292 65.6331C43.7559 66.4252 45.6581 66.5187 46.8709 65.8903L49.0528 64.9375C50.4123 64.4436 51.6916 62.956 52.0294 61.4772L53.7627 53.8696C53.8513 53.4838 54.3414 53.0366 54.7152 53.0015C54.7429 53.0015 55.5985 52.9226 56.8667 52.9226Z" fill="white" style="mix-blend-mode:plus-lighter"/>
<path d="M97.3578 133.537C97.1824 133.416 96.961 132.978 96.961 132.754L97.0128 127.127C97.0128 125.76 96.0899 124.39 94.868 123.942C94.868 123.942 94.1981 123.695 93.1718 123.422C92.1454 123.15 91.4439 123.035 91.4439 123.035C90.1473 122.824 88.7126 123.583 88.106 124.801L85.6335 129.763C85.5386 129.954 85.139 130.235 84.8486 130.265L83.023 130.546C82.8218 130.592 82.3618 130.447 82.218 130.292L78.492 126.295C77.5605 125.294 75.9678 125.031 74.7171 125.72L71.8421 127.532C70.7726 128.297 70.2264 129.954 70.6116 131.254L72.2159 136.769C72.2159 137.069 72.1066 137.368 71.9773 137.537L70.8848 139.095C70.7698 139.276 70.3471 139.515 70.1401 139.512L64.8156 139.458C63.5046 139.446 62.1908 140.413 61.7595 141.713C61.7595 141.713 61.5238 142.418 61.265 143.497C61.0063 144.577 60.897 145.315 60.897 145.315C60.8855 145.393 60.8625 145.708 60.8625 145.786C60.8625 147.02 61.5669 148.272 62.576 148.825L67.2939 151.426C67.475 151.526 67.7424 151.946 67.7711 152.251L68.0471 154.256C68.0471 154.559 67.8976 154.915 67.7999 155.015L63.9991 158.934C63.0734 159.886 62.7428 161.492 63.4529 162.904L65.175 165.925C65.9225 167.08 67.4463 167.64 68.7141 167.222L73.7943 165.553C73.9898 165.49 74.4613 165.589 74.6884 165.789L76.169 166.938C76.3444 167.059 76.5658 167.497 76.5658 167.721L76.514 173.348C76.514 174.715 77.4369 176.085 78.6588 176.533C78.6588 176.533 79.3286 176.78 80.355 177.053C81.3814 177.325 82.0829 177.44 82.0829 177.44C83.3795 177.651 84.8141 176.892 85.4208 175.674L87.8933 170.712C87.9881 170.521 88.3878 170.24 88.6781 170.21L90.498 169.932C90.6993 169.886 91.1593 170.031 91.303 170.186L95.029 174.183C95.9605 175.184 97.5533 175.447 98.8039 174.758L101.679 172.946C102.746 172.181 103.298 170.527 102.912 169.224L101.308 163.706C101.308 163.406 101.417 163.107 101.547 162.938L102.639 161.38C102.754 161.199 103.177 160.96 103.384 160.963L108.708 161.017C110.019 161.029 111.333 160.062 111.764 158.762C111.764 158.762 112 158.057 112.259 156.978C112.518 155.898 112.627 155.16 112.627 155.16C112.636 155.082 112.659 154.767 112.659 154.689C112.659 153.455 111.954 152.203 110.945 151.65L106.227 149.049C106.046 148.949 105.779 148.529 105.75 148.224L105.477 146.219C105.477 145.916 105.626 145.56 105.724 145.46L109.525 141.541C110.448 140.592 110.781 138.989 110.071 137.571L108.352 134.547C107.604 133.392 106.081 132.832 104.813 133.25L99.7325 134.919C99.537 134.982 99.0655 134.883 98.8384 134.683L97.3578 133.537ZM95.7133 136.017L97.053 137.054C97.9644 137.864 99.4508 138.179 100.586 137.804L105.664 136.137C105.744 136.122 105.925 136.189 105.928 136.174L107.561 139.04L107.512 139.382L103.712 143.304C103.039 143.999 102.602 145.145 102.602 146.222C102.602 146.47 102.625 146.709 102.656 146.839L102.901 148.577C103.004 149.823 103.844 151.151 104.896 151.731L109.611 154.329C109.683 154.377 109.786 154.568 109.786 154.692C109.784 154.725 109.686 155.342 109.473 156.243C109.257 157.141 109.065 157.734 109.053 157.761C109.016 157.854 108.829 157.991 108.737 157.997L103.413 157.942C102.222 157.93 100.885 158.683 100.282 159.657L99.2955 161.063C98.5451 161.997 98.2289 163.6 98.5825 164.779L100.17 170.143C100.17 170.27 100.095 170.412 100.132 170.394L97.4066 172.112C97.3319 172.145 97.1421 172.112 97.0818 172.06L93.3529 168.063C92.5163 167.171 91.0673 166.708 89.992 166.953L88.3389 167.207C87.1544 167.316 85.8923 168.199 85.3403 169.309L82.8706 174.268C82.8189 174.352 82.6176 174.458 82.5256 174.452C82.494 174.449 81.9075 174.346 81.0508 174.123C80.1969 173.896 79.6334 173.693 79.6075 173.681C79.5184 173.642 79.389 173.445 79.3833 173.348L79.435 167.718C79.435 166.475 78.7191 165.084 77.8049 164.455L76.468 163.421C75.5566 162.611 74.0703 162.296 72.9346 162.671L67.8574 164.338C67.7798 164.353 67.5958 164.286 67.5929 164.301L65.9599 161.435L66.0088 161.093L69.8095 157.171C70.4823 156.476 70.9193 155.33 70.9193 154.253C70.9193 154.005 70.8963 153.766 70.8646 153.636L70.6203 151.898C70.5168 150.652 69.6773 149.324 68.625 148.744L63.91 146.146C63.8381 146.098 63.7346 145.907 63.7346 145.783C63.7375 145.75 63.8353 145.133 64.048 144.232C64.2636 143.334 64.4563 142.741 64.4678 142.714C64.5051 142.621 64.692 142.484 64.784 142.478L70.1085 142.533C71.2988 142.545 72.6356 141.792 73.2394 140.818L74.2255 139.412C74.766 138.741 75.088 137.752 75.088 136.766C75.088 136.385 75.0363 136.023 74.9385 135.693L73.3515 130.329C73.3515 130.199 73.4176 130.057 73.3889 130.078L76.1144 128.36C76.1891 128.327 76.3789 128.36 76.4393 128.412L80.1681 132.409C81.0048 133.301 82.4538 133.764 83.529 133.519L85.1793 133.265C86.3638 133.156 87.6259 132.273 88.1779 131.163L90.6475 126.204C90.6993 126.12 90.9005 126.014 90.9925 126.02C91.0241 126.023 91.6106 126.126 92.4674 126.349C93.3213 126.576 93.8848 126.779 93.9106 126.791C93.9998 126.83 94.1291 127.027 94.1349 127.124L94.0831 132.754C94.0831 133.997 94.799 135.388 95.7133 136.017Z" fill="white" style="mix-blend-mode:plus-lighter"/>
<path d="M22.8625 143.5C22.8625 147.084 25.7788 150 29.3625 150C32.9462 150 35.8625 147.084 35.8625 143.5C35.8625 139.916 32.9462 137 29.3625 137C25.7788 137 22.8625 139.916 22.8625 143.5ZM33.6958 143.5C33.6958 145.89 31.7523 147.833 29.3625 147.833C26.9727 147.833 25.0292 145.89 25.0292 143.5C25.0292 141.11 26.9727 139.167 29.3625 139.167C31.7523 139.167 33.6958 141.11 33.6958 143.5Z" fill="white" style="mix-blend-mode:plus-lighter"/>
<path d="M85.2915 8V32H81.0995V9.824L83.0195 11.744H63.9795L65.8995 9.824V32H61.6755V8H85.2915ZM90.008 13.888H94.168V20.192L93.976 20.832V24.48L94.168 25.6V37.28H90.008V13.888ZM92.568 22.944C92.9733 21.024 93.6453 19.36 94.584 17.952C95.5227 16.5227 96.6747 15.4133 98.04 14.624C99.4267 13.8347 100.963 13.44 102.648 13.44C104.419 13.44 105.987 13.8453 107.352 14.656C108.717 15.4453 109.784 16.5547 110.552 17.984C111.32 19.392 111.704 21.0453 111.704 22.944C111.704 24.8213 111.32 26.4747 110.552 27.904C109.784 29.3333 108.717 30.4533 107.352 31.264C105.987 32.0533 104.419 32.448 102.648 32.448C100.963 32.448 99.4373 32.0533 98.072 31.264C96.7067 30.4747 95.544 29.3653 94.584 27.936C93.6453 26.5067 92.9733 24.8427 92.568 22.944ZM107.48 22.944C107.48 21.728 107.224 20.6613 106.712 19.744C106.221 18.8053 105.539 18.08 104.664 17.568C103.789 17.0347 102.787 16.768 101.656 16.768C100.525 16.768 99.4587 17.0347 98.456 17.568C97.4747 18.08 96.6107 18.8053 95.864 19.744C95.1173 20.6613 94.5093 21.728 94.04 22.944C94.5093 24.16 95.1173 25.2373 95.864 26.176C96.6107 27.0933 97.4747 27.8187 98.456 28.352C99.4587 28.864 100.525 29.12 101.656 29.12C102.787 29.12 103.789 28.864 104.664 28.352C105.539 27.8187 106.221 27.0933 106.712 26.176C107.224 25.2373 107.48 24.16 107.48 22.944ZM115.164 32V13.888H119.26V29.92L118.012 29.632L130.396 13.888H135.772V32H131.676V15.744L132.956 16.064L120.412 32H115.164ZM140.196 32V13.888H146.372L153.988 30.016H152.356L159.908 13.888H166.084V32H162.18V15.264H163.268L155.172 32H151.108L143.012 15.328L144.1 15.296V32H140.196ZM180.396 32.448C178.284 32.448 176.407 32.0533 174.764 31.264C173.121 30.4533 171.831 29.3333 170.892 27.904C169.953 26.4747 169.484 24.8107 169.484 22.912C169.484 21.0347 169.921 19.392 170.796 17.984C171.692 16.5547 172.919 15.4453 174.476 14.656C176.055 13.8453 177.857 13.44 179.884 13.44C181.911 13.44 183.66 13.8987 185.132 14.816C186.625 15.712 187.777 16.9813 188.588 18.624C189.399 20.2667 189.804 22.1973 189.804 24.416H172.748V21.248H187.724L185.644 22.432C185.58 21.2373 185.292 20.2133 184.78 19.36C184.289 18.5067 183.617 17.856 182.764 17.408C181.932 16.9387 180.94 16.704 179.788 16.704C178.572 16.704 177.505 16.9493 176.588 17.44C175.692 17.9307 174.988 18.624 174.476 19.52C173.964 20.3947 173.708 21.44 173.708 22.656C173.708 24 174.007 25.1627 174.604 26.144C175.223 27.1253 176.087 27.8827 177.196 28.416C178.327 28.928 179.66 29.184 181.196 29.184C182.583 29.184 184.001 28.9707 185.452 28.544C186.903 28.096 188.183 27.4773 189.292 26.688V29.696C188.183 30.5493 186.828 31.2213 185.228 31.712C183.649 32.2027 182.039 32.448 180.396 32.448ZM193.227 13.888H197.387V20.192L197.195 20.832V24.48L197.387 25.6V37.28H193.227V13.888ZM195.787 22.944C196.192 21.024 196.864 19.36 197.803 17.952C198.741 16.5227 199.893 15.4133 201.259 14.624C202.645 13.8347 204.181 13.44 205.867 13.44C207.637 13.44 209.205 13.8453 210.571 14.656C211.936 15.4453 213.003 16.5547 213.771 17.984C214.539 19.392 214.923 21.0453 214.923 22.944C214.923 24.8213 214.539 26.4747 213.771 27.904C213.003 29.3333 211.936 30.4533 210.571 31.264C209.205 32.0533 207.637 32.448 205.867 32.448C204.181 32.448 202.656 32.0533 201.291 31.264C199.925 30.4747 198.763 29.3653 197.803 27.936C196.864 26.5067 196.192 24.8427 195.787 22.944ZM210.699 22.944C210.699 21.728 210.443 20.6613 209.931 19.744C209.44 18.8053 208.757 18.08 207.883 17.568C207.008 17.0347 206.005 16.768 204.875 16.768C203.744 16.768 202.677 17.0347 201.675 17.568C200.693 18.08 199.829 18.8053 199.083 19.744C198.336 20.6613 197.728 21.728 197.259 22.944C197.728 24.16 198.336 25.2373 199.083 26.176C199.829 27.0933 200.693 27.8187 201.675 28.352C202.677 28.864 203.744 29.12 204.875 29.12C206.005 29.12 207.008 28.864 207.883 28.352C208.757 27.8187 209.44 27.0933 209.931 26.176C210.443 25.2373 210.699 24.16 210.699 22.944ZM246.244 13.888V32H242.084V15.2L244.004 17.088H229.092L231.012 15.2V32H226.852V13.888H246.244ZM250.664 13.888H254.824V20.192L254.632 20.832V24.48L254.824 25.6V37.28H250.664V13.888ZM253.224 22.944C253.63 21.024 254.302 19.36 255.24 17.952C256.179 16.5227 257.331 15.4133 258.696 14.624C260.083 13.8347 261.619 13.44 263.304 13.44C265.075 13.44 266.643 13.8453 268.008 14.656C269.374 15.4453 270.44 16.5547 271.208 17.984C271.976 19.392 272.36 21.0453 272.36 22.944C272.36 24.8213 271.976 26.4747 271.208 27.904C270.44 29.3333 269.374 30.4533 268.008 31.264C266.643 32.0533 265.075 32.448 263.304 32.448C261.619 32.448 260.094 32.0533 258.728 31.264C257.363 30.4747 256.2 29.3653 255.24 27.936C254.302 26.5067 253.63 24.8427 253.224 22.944ZM268.136 22.944C268.136 21.728 267.88 20.6613 267.368 19.744C266.878 18.8053 266.195 18.08 265.32 17.568C264.446 17.0347 263.443 16.768 262.312 16.768C261.182 16.768 260.115 17.0347 259.112 17.568C258.131 18.08 257.267 18.8053 256.52 19.744C255.774 20.6613 255.166 21.728 254.696 22.944C255.166 24.16 255.774 25.2373 256.52 26.176C257.267 27.0933 258.131 27.8187 259.112 28.352C260.115 28.864 261.182 29.12 262.312 29.12C263.443 29.12 264.446 28.864 265.32 28.352C266.195 27.8187 266.878 27.0933 267.368 26.176C267.88 25.2373 268.136 24.16 268.136 22.944ZM275.821 32V13.888H279.917V29.92L278.669 29.632L291.053 13.888H296.429V32H292.333V15.744L293.613 16.064L281.069 32H275.821ZM300.852 32V13.888H307.028L314.644 30.016H313.012L320.564 13.888H326.74V32H322.836V15.264H323.924L315.828 32H311.764L303.668 15.328L304.756 15.296V32H300.852ZM341.052 32.448C338.94 32.448 337.063 32.0533 335.42 31.264C333.778 30.4533 332.487 29.3333 331.548 27.904C330.61 26.4747 330.14 24.8107 330.14 22.912C330.14 21.0347 330.578 19.392 331.452 17.984C332.348 16.5547 333.575 15.4453 335.132 14.656C336.711 13.8453 338.514 13.44 340.54 13.44C342.567 13.44 344.316 13.8987 345.788 14.816C347.282 15.712 348.434 16.9813 349.244 18.624C350.055 20.2667 350.46 22.1973 350.46 24.416H333.404V21.248H348.38L346.3 22.432C346.236 21.2373 345.948 20.2133 345.436 19.36C344.946 18.5067 344.274 17.856 343.42 17.408C342.588 16.9387 341.596 16.704 340.444 16.704C339.228 16.704 338.162 16.9493 337.244 17.44C336.348 17.9307 335.644 18.624 335.132 19.52C334.62 20.3947 334.364 21.44 334.364 22.656C334.364 24 334.663 25.1627 335.26 26.144C335.879 27.1253 336.743 27.8827 337.852 28.416C338.983 28.928 340.316 29.184 341.852 29.184C343.239 29.184 344.658 28.9707 346.108 28.544C347.559 28.096 348.839 27.4773 349.948 26.688V29.696C348.839 30.5493 347.484 31.2213 345.884 31.712C344.306 32.2027 342.695 32.448 341.052 32.448ZM353.883 13.888H358.011V32H353.883V13.888ZM369.275 13.888H373.403V32H369.275V13.888ZM356.219 21.216H371.003V24.416H356.219V21.216ZM387.709 32.448C385.597 32.448 383.719 32.0533 382.077 31.264C380.434 30.4533 379.143 29.3333 378.205 27.904C377.266 26.4747 376.797 24.8107 376.797 22.912C376.797 21.0347 377.234 19.392 378.109 17.984C379.005 16.5547 380.231 15.4453 381.789 14.656C383.367 13.8453 385.17 13.44 387.197 13.44C389.223 13.44 390.973 13.8987 392.445 14.816C393.938 15.712 395.09 16.9813 395.901 18.624C396.711 20.2667 397.117 22.1973 397.117 24.416H380.061V21.248H395.037L392.957 22.432C392.893 21.2373 392.605 20.2133 392.093 19.36C391.602 18.5067 390.93 17.856 390.077 17.408C389.245 16.9387 388.253 16.704 387.101 16.704C385.885 16.704 384.818 16.9493 383.901 17.44C383.005 17.9307 382.301 18.624 381.789 19.52C381.277 20.3947 381.021 21.44 381.021 22.656C381.021 24 381.319 25.1627 381.917 26.144C382.535 27.1253 383.399 27.8827 384.509 28.416C385.639 28.928 386.973 29.184 388.509 29.184C389.895 29.184 391.314 28.9707 392.765 28.544C394.215 28.096 395.495 27.4773 396.605 26.688V29.696C395.495 30.5493 394.141 31.2213 392.541 31.712C390.962 32.2027 389.351 32.448 387.709 32.448ZM400.539 13.888H404.667V32H400.539V13.888ZM415.931 13.888H420.059V32H415.931V13.888ZM402.875 21.216H417.659V24.416H402.875V21.216ZM424.477 32V13.888H428.573V29.92L427.325 29.632L439.709 13.888H445.085V32H440.989V15.744L442.269 16.064L429.725 32H424.477ZM464.58 22.432V25.344H455.428L455.364 25.248C454.041 25.248 452.879 25.0133 451.876 24.544C450.873 24.0747 450.095 23.4133 449.54 22.56C448.985 21.7067 448.708 20.7147 448.708 19.584C448.708 18.4533 448.985 17.4613 449.54 16.608C450.095 15.7547 450.873 15.0933 451.876 14.624C452.879 14.1333 454.041 13.888 455.364 13.888H467.524V32H463.364V15.072L464.74 16.864H456.26C455.215 16.864 454.393 17.1093 453.796 17.6C453.22 18.0907 452.932 18.7627 452.932 19.616C452.932 20.4693 453.22 21.152 453.796 21.664C454.393 22.176 455.215 22.432 456.26 22.432H464.58ZM459.876 23.52L453.156 32H448.324L455.236 23.52H459.876ZM97.6486 53.888H101.777V72H97.6486V53.888ZM113.041 53.888H117.169V72H113.041V53.888ZM99.9846 61.216H114.769V64.416H99.9846V61.216ZM138.482 72L137.778 65.28L138.61 62.944L137.778 60.64L138.482 53.888H142.77L141.81 62.944L142.77 72H138.482ZM139.762 62.944C139.357 64.8427 138.685 66.5067 137.746 67.936C136.807 69.3653 135.645 70.4747 134.258 71.264C132.893 72.0533 131.367 72.448 129.682 72.448C127.911 72.448 126.343 72.0533 124.978 71.264C123.613 70.4533 122.546 69.3333 121.778 67.904C121.01 66.4747 120.626 64.8213 120.626 62.944C120.626 61.0453 121.01 59.392 121.778 57.984C122.546 56.5547 123.613 55.4453 124.978 54.656C126.343 53.8453 127.911 53.44 129.682 53.44C131.367 53.44 132.893 53.8347 134.258 54.624C135.645 55.4133 136.807 56.5227 137.746 57.952C138.706 59.36 139.378 61.024 139.762 62.944ZM124.85 62.944C124.85 64.16 125.095 65.2373 125.586 66.176C126.098 67.0933 126.791 67.8187 127.666 68.352C128.541 68.864 129.543 69.12 130.674 69.12C131.826 69.12 132.893 68.864 133.874 68.352C134.855 67.8187 135.719 67.0933 136.466 66.176C137.234 65.2373 137.842 64.16 138.29 62.944C137.842 61.728 137.234 60.6613 136.466 59.744C135.719 58.8053 134.855 58.08 133.874 57.568C132.893 57.0347 131.826 56.768 130.674 56.768C129.543 56.768 128.541 57.0347 127.666 57.568C126.791 58.08 126.098 58.8053 125.586 59.744C125.095 60.6613 124.85 61.728 124.85 62.944ZM174.634 53.888V72H170.474V55.2L172.394 57.088H157.482L159.402 55.2V72H155.242V53.888H174.634ZM179.055 53.888H183.215V60.192L183.023 60.832V64.48L183.215 65.6V77.28H179.055V53.888ZM181.615 62.944C182.02 61.024 182.692 59.36 183.631 57.952C184.57 56.5227 185.722 55.4133 187.087 54.624C188.474 53.8347 190.01 53.44 191.695 53.44C193.466 53.44 195.034 53.8453 196.399 54.656C197.764 55.4453 198.831 56.5547 199.599 57.984C200.367 59.392 200.751 61.0453 200.751 62.944C200.751 64.8213 200.367 66.4747 199.599 67.904C198.831 69.3333 197.764 70.4533 196.399 71.264C195.034 72.0533 193.466 72.448 191.695 72.448C190.01 72.448 188.484 72.0533 187.119 71.264C185.754 70.4747 184.591 69.3653 183.631 67.936C182.692 66.5067 182.02 64.8427 181.615 62.944ZM196.527 62.944C196.527 61.728 196.271 60.6613 195.759 59.744C195.268 58.8053 194.586 58.08 193.711 57.568C192.836 57.0347 191.834 56.768 190.703 56.768C189.572 56.768 188.506 57.0347 187.503 57.568C186.522 58.08 185.658 58.8053 184.911 59.744C184.164 60.6613 183.556 61.728 183.087 62.944C183.556 64.16 184.164 65.2373 184.911 66.176C185.658 67.0933 186.522 67.8187 187.503 68.352C188.506 68.864 189.572 69.12 190.703 69.12C191.834 69.12 192.836 68.864 193.711 68.352C194.586 67.8187 195.268 67.0933 195.759 66.176C196.271 65.2373 196.527 64.16 196.527 62.944ZM214.227 72.448C212.03 72.448 210.099 72.0533 208.435 71.264C206.792 70.4533 205.502 69.3333 204.563 67.904C203.646 66.4747 203.187 64.8213 203.187 62.944C203.187 61.0453 203.646 59.392 204.563 57.984C205.502 56.5547 206.792 55.4453 208.435 54.656C210.099 53.8453 212.03 53.44 214.227 53.44C216.424 53.44 218.344 53.8453 219.987 54.656C221.651 55.4453 222.942 56.5547 223.859 57.984C224.798 59.392 225.267 61.0453 225.267 62.944C225.267 64.8213 224.798 66.4747 223.859 67.904C222.942 69.3333 221.651 70.4533 219.987 71.264C218.344 72.0533 216.424 72.448 214.227 72.448ZM214.227 69.184C215.635 69.184 216.84 68.928 217.843 68.416C218.867 67.904 219.656 67.1893 220.211 66.272C220.766 65.3333 221.043 64.224 221.043 62.944C221.043 61.664 220.766 60.5653 220.211 59.648C219.656 58.7093 218.867 57.984 217.843 57.472C216.84 56.96 215.635 56.704 214.227 56.704C212.84 56.704 211.635 56.96 210.611 57.472C209.587 57.984 208.798 58.7093 208.243 59.648C207.688 60.5653 207.411 61.664 207.411 62.944C207.411 64.224 207.688 65.3333 208.243 66.272C208.798 67.1893 209.587 67.904 210.611 68.416C211.635 68.928 212.84 69.184 214.227 69.184ZM228.649 72V53.888H232.745V69.92L231.497 69.632L243.881 53.888H249.257V72H245.161V55.744L246.441 56.064L233.897 72H228.649ZM262.128 72.448C260.208 72.448 258.523 72.192 257.072 71.68C255.643 71.168 254.512 70.432 253.68 69.472C252.869 68.512 252.421 67.3707 252.336 66.048H256.368C256.539 67.0933 257.115 67.8933 258.096 68.448C259.099 68.9813 260.443 69.248 262.128 69.248C263.749 69.248 265.019 69.0347 265.936 68.608C266.853 68.16 267.312 67.4773 267.312 66.56C267.312 65.8133 266.928 65.2587 266.16 64.896C265.413 64.5333 264.219 64.352 262.576 64.352H258.992V61.472H262.48C263.952 61.472 265.04 61.248 265.744 60.8C266.469 60.352 266.832 59.7973 266.832 59.136C266.832 58.3253 266.405 57.7067 265.552 57.28C264.699 56.8533 263.579 56.64 262.192 56.64C260.656 56.64 259.408 56.8853 258.448 57.376C257.488 57.8667 256.923 58.6027 256.752 59.584H252.72C252.827 58.432 253.264 57.3973 254.032 56.48C254.821 55.5413 255.92 54.8053 257.328 54.272C258.736 53.7173 260.411 53.44 262.352 53.44C264.123 53.44 265.659 53.664 266.96 54.112C268.261 54.56 269.264 55.1787 269.968 55.968C270.693 56.736 271.056 57.6213 271.056 58.624C271.056 59.4347 270.8 60.1813 270.288 60.864C269.797 61.5467 269.019 62.0907 267.952 62.496C266.907 62.9013 265.552 63.104 263.888 63.104V62.56C266.32 62.4747 268.208 62.8053 269.552 63.552C270.896 64.2773 271.568 65.3653 271.568 66.816C271.568 67.904 271.195 68.8747 270.448 69.728C269.723 70.5813 268.656 71.2533 267.248 71.744C265.84 72.2133 264.133 72.448 262.128 72.448ZM274.608 72L275.536 62.944L274.608 53.888H287.728C289.477 53.888 290.842 54.2933 291.824 55.104C292.826 55.9147 293.328 57.0347 293.328 58.464C293.328 59.7867 292.826 60.8533 291.824 61.664C290.842 62.4533 289.466 62.9227 287.696 63.072L288.016 62.304C290.106 62.3467 291.706 62.7733 292.816 63.584C293.925 64.3947 294.48 65.536 294.48 67.008C294.48 68.5653 293.914 69.792 292.784 70.688C291.674 71.5627 290.128 72 288.144 72H274.608ZM278.64 70.976L277.04 69.12H287.088C288.218 69.12 289.029 68.9067 289.52 68.48C290.032 68.032 290.288 67.4133 290.288 66.624C290.288 65.92 290 65.3333 289.424 64.864C288.869 64.3947 287.93 64.16 286.608 64.16H277.936V61.472H286C287.088 61.472 287.877 61.2587 288.368 60.832C288.88 60.384 289.136 59.808 289.136 59.104C289.136 58.4213 288.912 57.8667 288.464 57.44C288.037 56.992 287.312 56.768 286.288 56.768H277.072L278.64 54.944L279.536 62.944L278.64 70.976ZM307.852 72.448C305.655 72.448 303.724 72.0533 302.06 71.264C300.417 70.4533 299.127 69.3333 298.188 67.904C297.271 66.4747 296.812 64.8213 296.812 62.944C296.812 61.0453 297.271 59.392 298.188 57.984C299.127 56.5547 300.417 55.4453 302.06 54.656C303.724 53.8453 305.655 53.44 307.852 53.44C310.049 53.44 311.969 53.8453 313.612 54.656C315.276 55.4453 316.567 56.5547 317.484 57.984C318.423 59.392 318.892 61.0453 318.892 62.944C318.892 64.8213 318.423 66.4747 317.484 67.904C316.567 69.3333 315.276 70.4533 313.612 71.264C311.969 72.0533 310.049 72.448 307.852 72.448ZM307.852 69.184C309.26 69.184 310.465 68.928 311.468 68.416C312.492 67.904 313.281 67.1893 313.836 66.272C314.391 65.3333 314.668 64.224 314.668 62.944C314.668 61.664 314.391 60.5653 313.836 59.648C313.281 58.7093 312.492 57.984 311.468 57.472C310.465 56.96 309.26 56.704 307.852 56.704C306.465 56.704 305.26 56.96 304.236 57.472C303.212 57.984 302.423 58.7093 301.868 59.648C301.313 60.5653 301.036 61.664 301.036 62.944C301.036 64.224 301.313 65.3333 301.868 66.272C302.423 67.1893 303.212 67.904 304.236 68.416C305.26 68.928 306.465 69.184 307.852 69.184ZM345.042 68.8V76.576H341.426V72H323.314V76.576H319.698V68.8H324.37L325.522 68.864H338.738L339.762 68.8H345.042ZM323.73 53.888H341.682V70.784H337.522V55.168L339.442 57.088H325.906L327.698 55.68C327.805 56.6187 327.869 57.5253 327.89 58.4C327.933 59.2533 327.954 60.0533 327.954 60.8C327.954 63.9147 327.527 66.3573 326.674 68.128C325.842 69.8987 324.669 70.784 323.154 70.784L321.458 69.344C323.207 68.064 324.082 64.9493 324.082 60C324.082 59.04 324.05 58.048 323.986 57.024C323.922 55.9787 323.837 54.9333 323.73 53.888ZM367.555 64.864C367.342 66.3573 366.755 67.68 365.795 68.832C364.835 69.9627 363.608 70.848 362.115 71.488C360.622 72.128 358.958 72.448 357.123 72.448C355.032 72.448 353.187 72.0533 351.587 71.264C350.008 70.4533 348.771 69.3333 347.875 67.904C346.979 66.4747 346.531 64.8213 346.531 62.944C346.531 61.0667 346.979 59.4133 347.875 57.984C348.771 56.5547 350.008 55.4453 351.587 54.656C353.187 53.8453 355.032 53.44 357.123 53.44C358.958 53.44 360.622 53.76 362.115 54.4C363.608 55.04 364.835 55.936 365.795 57.088C366.755 58.2187 367.342 59.5413 367.555 61.056H363.363C363.064 59.6907 362.35 58.624 361.219 57.856C360.088 57.088 358.723 56.704 357.123 56.704C355.843 56.704 354.723 56.96 353.763 57.472C352.803 57.9627 352.056 58.6773 351.523 59.616C351.011 60.5333 350.755 61.6427 350.755 62.944C350.755 64.224 351.011 65.3333 351.523 66.272C352.056 67.2107 352.803 67.936 353.763 68.448C354.723 68.9387 355.843 69.184 357.123 69.184C358.744 69.184 360.12 68.7893 361.251 68C362.382 67.2107 363.086 66.1653 363.363 64.864H367.555ZM375.658 55.328H379.818V72H375.658V55.328ZM368.138 53.888H387.338V57.152H368.138V53.888ZM389.545 72L390.473 62.944L389.545 53.888H402.665C404.414 53.888 405.78 54.2933 406.761 55.104C407.764 55.9147 408.265 57.0347 408.265 58.464C408.265 59.7867 407.764 60.8533 406.761 61.664C405.78 62.4533 404.404 62.9227 402.633 63.072L402.953 62.304C405.044 62.3467 406.644 62.7733 407.753 63.584C408.862 64.3947 409.417 65.536 409.417 67.008C409.417 68.5653 408.852 69.792 407.721 70.688C406.612 71.5627 405.065 72 403.081 72H389.545ZM393.577 70.976L391.977 69.12H402.025C403.156 69.12 403.966 68.9067 404.457 68.48C404.969 68.032 405.225 67.4133 405.225 66.624C405.225 65.92 404.937 65.3333 404.361 64.864C403.806 64.3947 402.868 64.16 401.545 64.16H392.873V61.472H400.937C402.025 61.472 402.814 61.2587 403.305 60.832C403.817 60.384 404.073 59.808 404.073 59.104C404.073 58.4213 403.849 57.8667 403.401 57.44C402.974 56.992 402.249 56.768 401.225 56.768H392.009L393.577 54.944L394.473 62.944L393.577 70.976ZM422.662 72.448C420.55 72.448 418.672 72.0533 417.03 71.264C415.387 70.4533 414.096 69.3333 413.158 67.904C412.219 66.4747 411.75 64.8107 411.75 62.912C411.75 61.0347 412.187 59.392 413.062 57.984C413.958 56.5547 415.184 55.4453 416.742 54.656C418.32 53.8453 420.123 53.44 422.15 53.44C424.176 53.44 425.926 53.8987 427.398 54.816C428.891 55.712 430.043 56.9813 430.854 58.624C431.664 60.2667 432.07 62.1973 432.07 64.416H415.014V61.248H429.99L427.91 62.432C427.846 61.2373 427.558 60.2133 427.046 59.36C426.555 58.5067 425.883 57.856 425.03 57.408C424.198 56.9387 423.206 56.704 422.054 56.704C420.838 56.704 419.771 56.9493 418.854 57.44C417.958 57.9307 417.254 58.624 416.742 59.52C416.23 60.3947 415.974 61.44 415.974 62.656C415.974 64 416.272 65.1627 416.87 66.144C417.488 67.1253 418.352 67.8827 419.462 68.416C420.592 68.928 421.926 69.184 423.462 69.184C424.848 69.184 426.267 68.9707 427.718 68.544C429.168 68.096 430.448 67.4773 431.558 66.688V69.696C430.448 70.5493 429.094 71.2213 427.494 71.712C425.915 72.2027 424.304 72.448 422.662 72.448Z" fill="white"/>
</svg>
