<svg width="606" height="748" viewBox="0 0 606 748" fill="none" xmlns="http://www.w3.org/2000/svg">
<rect width="606" height="748" rx="30" fill="white"/>
<path d="M207.064 61.504C203.992 61.504 201.292 60.916 198.964 59.74C196.636 58.564 194.824 56.932 193.528 54.844C192.232 52.732 191.584 50.284 191.584 47.5C191.584 44.716 192.232 42.28 193.528 40.192C194.824 38.08 196.636 36.436 198.964 35.26C201.292 34.084 203.992 33.496 207.064 33.496C210.136 33.496 212.836 34.084 215.164 35.26C217.492 36.436 219.304 38.08 220.6 40.192C221.896 42.28 222.544 44.716 222.544 47.5C222.544 50.284 221.896 52.732 220.6 54.844C219.304 56.932 217.492 58.564 215.164 59.74C212.836 60.916 210.136 61.504 207.064 61.504ZM207.064 57.256C209.248 57.256 211.132 56.86 212.716 56.068C214.3 55.276 215.524 54.148 216.388 52.684C217.276 51.22 217.72 49.492 217.72 47.5C217.72 45.508 217.276 43.78 216.388 42.316C215.524 40.852 214.3 39.724 212.716 38.932C211.132 38.14 209.248 37.744 207.064 37.744C204.904 37.744 203.02 38.14 201.412 38.932C199.828 39.724 198.592 40.852 197.704 42.316C196.84 43.78 196.408 45.508 196.408 47.5C196.408 49.492 196.84 51.22 197.704 52.684C198.592 54.148 199.828 55.276 201.412 56.068C203.02 56.86 204.904 57.256 207.064 57.256ZM248.437 40.624V61H243.757V42.1L245.917 44.224H229.141L231.301 42.1V61H226.621V40.624H248.437ZM253.41 61V40.624H258.018V58.66L256.614 58.336L270.546 40.624H276.594V61H271.986V42.712L273.426 43.072L259.314 61H253.41ZM304.07 52.972C303.83 54.652 303.17 56.14 302.09 57.436C301.01 58.708 299.63 59.704 297.95 60.424C296.27 61.144 294.398 61.504 292.334 61.504C289.982 61.504 287.906 61.06 286.106 60.172C284.33 59.26 282.938 58 281.93 56.392C280.922 54.784 280.418 52.924 280.418 50.812C280.418 48.7 280.922 46.84 281.93 45.232C282.938 43.624 284.33 42.376 286.106 41.488C287.906 40.576 289.982 40.12 292.334 40.12C294.398 40.12 296.27 40.48 297.95 41.2C299.63 41.92 301.01 42.928 302.09 44.224C303.17 45.496 303.83 46.984 304.07 48.688H299.354C299.018 47.152 298.214 45.952 296.942 45.088C295.67 44.224 294.134 43.792 292.334 43.792C290.894 43.792 289.634 44.08 288.554 44.656C287.474 45.208 286.634 46.012 286.034 47.068C285.458 48.1 285.17 49.348 285.17 50.812C285.17 52.252 285.458 53.5 286.034 54.556C286.634 55.612 287.474 56.428 288.554 57.004C289.634 57.556 290.894 57.832 292.334 57.832C294.158 57.832 295.706 57.388 296.978 56.5C298.25 55.612 299.042 54.436 299.354 52.972H304.07ZM326.629 61L325.837 53.44L326.773 50.812L325.837 48.22L326.629 40.624H331.453L330.373 50.812L331.453 61H326.629ZM328.069 50.812C327.613 52.948 326.857 54.82 325.801 56.428C324.745 58.036 323.437 59.284 321.877 60.172C320.341 61.06 318.625 61.504 316.729 61.504C314.737 61.504 312.973 61.06 311.437 60.172C309.901 59.26 308.701 58 307.837 56.392C306.973 54.784 306.541 52.924 306.541 50.812C306.541 48.676 306.973 46.816 307.837 45.232C308.701 43.624 309.901 42.376 311.437 41.488C312.973 40.576 314.737 40.12 316.729 40.12C318.625 40.12 320.341 40.564 321.877 41.452C323.437 42.34 324.745 43.588 325.801 45.196C326.881 46.78 327.637 48.652 328.069 50.812ZM311.293 50.812C311.293 52.18 311.569 53.392 312.121 54.448C312.697 55.48 313.477 56.296 314.461 56.896C315.445 57.472 316.573 57.76 317.845 57.76C319.141 57.76 320.341 57.472 321.445 56.896C322.549 56.296 323.521 55.48 324.361 54.448C325.225 53.392 325.909 52.18 326.413 50.812C325.909 49.444 325.225 48.244 324.361 47.212C323.521 46.156 322.549 45.34 321.445 44.764C320.341 44.164 319.141 43.864 317.845 43.864C316.573 43.864 315.445 44.164 314.461 44.764C313.477 45.34 312.697 46.156 312.121 47.212C311.569 48.244 311.293 49.444 311.293 50.812ZM335.957 40.624H340.601V61H335.957V40.624ZM353.273 40.624H357.917V61H353.273V40.624ZM338.585 48.868H355.217V52.468H338.585V48.868ZM362.886 61V40.624H367.494V58.66L366.09 58.336L380.022 40.624H386.07V61H381.462V42.712L382.902 43.072L368.79 61H362.886ZM402.171 61.504C399.795 61.504 397.683 61.06 395.835 60.172C393.987 59.26 392.535 58 391.479 56.392C390.423 54.784 389.895 52.912 389.895 50.776C389.895 48.664 390.387 46.816 391.371 45.232C392.379 43.624 393.759 42.376 395.511 41.488C397.287 40.576 399.315 40.12 401.595 40.12C403.875 40.12 405.843 40.636 407.499 41.668C409.179 42.676 410.475 44.104 411.387 45.952C412.299 47.8 412.755 49.972 412.755 52.468H393.567V48.904H410.415L408.075 50.236C408.003 48.892 407.679 47.74 407.103 46.78C406.551 45.82 405.795 45.088 404.835 44.584C403.899 44.056 402.783 43.792 401.487 43.792C400.119 43.792 398.919 44.068 397.887 44.62C396.879 45.172 396.087 45.952 395.511 46.96C394.935 47.944 394.647 49.12 394.647 50.488C394.647 52 394.983 53.308 395.655 54.412C396.351 55.516 397.323 56.368 398.571 56.968C399.843 57.544 401.343 57.832 403.071 57.832C404.631 57.832 406.227 57.592 407.859 57.112C409.491 56.608 410.931 55.912 412.179 55.024V58.408C410.931 59.368 409.407 60.124 407.607 60.676C405.831 61.228 404.019 61.504 402.171 61.504Z" fill="black" style="mix-blend-mode:hard-light"/>
</svg>
