<svg width="700" height="668" viewBox="0 0 700 668" fill="none" xmlns="http://www.w3.org/2000/svg">
<rect width="700" height="629" fill="#8FD2FC"/>
<path d="M218.696 67H224.504V100H218.696V67ZM245.536 67H251.344V100H245.536V67ZM221.82 80.816H248.308V85.92H221.82V80.816ZM281.014 100L280.046 90.76L281.19 87.548L280.046 84.38L281.014 75.096H286.91L285.59 87.548L286.91 100H281.014ZM282.774 87.548C282.217 90.1587 281.293 92.4467 280.002 94.412C278.711 96.3773 277.113 97.9027 275.206 98.988C273.329 100.073 271.231 100.616 268.914 100.616C266.479 100.616 264.323 100.073 262.446 98.988C260.569 97.8733 259.102 96.3333 258.046 94.368C256.99 92.4027 256.462 90.1293 256.462 87.548C256.462 84.9373 256.99 82.664 258.046 80.728C259.102 78.7627 260.569 77.2373 262.446 76.152C264.323 75.0373 266.479 74.48 268.914 74.48C271.231 74.48 273.329 75.0227 275.206 76.108C277.113 77.1933 278.711 78.7187 280.002 80.684C281.322 82.62 282.246 84.908 282.774 87.548ZM262.27 87.548C262.27 89.22 262.607 90.7013 263.282 91.992C263.986 93.2533 264.939 94.2507 266.142 94.984C267.345 95.688 268.723 96.04 270.278 96.04C271.862 96.04 273.329 95.688 274.678 94.984C276.027 94.2507 277.215 93.2533 278.242 91.992C279.298 90.7013 280.134 89.22 280.75 87.548C280.134 85.876 279.298 84.4093 278.242 83.148C277.215 81.8573 276.027 80.86 274.678 80.156C273.329 79.4227 271.862 79.056 270.278 79.056C268.723 79.056 267.345 79.4227 266.142 80.156C264.939 80.86 263.986 81.8573 263.282 83.148C262.607 84.4093 262.27 85.876 262.27 87.548ZM304.031 100.616C301.391 100.616 299.074 100.264 297.079 99.56C295.114 98.856 293.559 97.844 292.415 96.524C291.3 95.204 290.684 93.6347 290.567 91.816H296.111C296.346 93.2533 297.138 94.3533 298.487 95.116C299.866 95.8493 301.714 96.216 304.031 96.216C306.26 96.216 308.006 95.9227 309.267 95.336C310.528 94.72 311.159 93.7813 311.159 92.52C311.159 91.4933 310.631 90.7307 309.575 90.232C308.548 89.7333 306.906 89.484 304.647 89.484H299.719V85.524H304.515C306.539 85.524 308.035 85.216 309.003 84.6C310 83.984 310.499 83.2213 310.499 82.312C310.499 81.1973 309.912 80.3467 308.739 79.76C307.566 79.1733 306.026 78.88 304.119 78.88C302.007 78.88 300.291 79.2173 298.971 79.892C297.651 80.5667 296.874 81.5787 296.639 82.928H291.095C291.242 81.344 291.843 79.9213 292.899 78.66C293.984 77.3693 295.495 76.3573 297.431 75.624C299.367 74.8613 301.67 74.48 304.339 74.48C306.774 74.48 308.886 74.788 310.675 75.404C312.464 76.02 313.843 76.8707 314.811 77.956C315.808 79.012 316.307 80.2293 316.307 81.608C316.307 82.7227 315.955 83.7493 315.251 84.688C314.576 85.6267 313.506 86.3747 312.039 86.932C310.602 87.4893 308.739 87.768 306.451 87.768V87.02C309.795 86.9027 312.391 87.3573 314.239 88.384C316.087 89.3813 317.011 90.8773 317.011 92.872C317.011 94.368 316.498 95.7027 315.471 96.876C314.474 98.0493 313.007 98.9733 311.071 99.648C309.135 100.293 306.788 100.616 304.031 100.616ZM321.191 100L322.467 87.548L321.191 75.096H339.231C341.636 75.096 343.513 75.6533 344.863 76.768C346.241 77.8827 346.931 79.4227 346.931 81.388C346.931 83.2067 346.241 84.6733 344.863 85.788C343.513 86.8733 341.621 87.5187 339.187 87.724L339.627 86.668C342.501 86.7267 344.701 87.3133 346.227 88.428C347.752 89.5427 348.515 91.112 348.515 93.136C348.515 95.2773 347.737 96.964 346.183 98.196C344.657 99.3987 342.531 100 339.803 100H321.191ZM326.735 98.592L324.535 96.04H338.351C339.905 96.04 341.02 95.7467 341.695 95.16C342.399 94.544 342.751 93.6933 342.751 92.608C342.751 91.64 342.355 90.8333 341.563 90.188C340.8 89.5427 339.509 89.22 337.691 89.22H325.767V85.524H336.855C338.351 85.524 339.436 85.2307 340.111 84.644C340.815 84.028 341.167 83.236 341.167 82.268C341.167 81.3293 340.859 80.5667 340.243 79.98C339.656 79.364 338.659 79.056 337.251 79.056H324.579L326.735 76.548L327.967 87.548L326.735 98.592ZM376.362 100L375.394 90.76L376.538 87.548L375.394 84.38L376.362 75.096H382.258L380.938 87.548L382.258 100H376.362ZM378.122 87.548C377.564 90.1587 376.64 92.4467 375.35 94.412C374.059 96.3773 372.46 97.9027 370.554 98.988C368.676 100.073 366.579 100.616 364.262 100.616C361.827 100.616 359.671 100.073 357.794 98.988C355.916 97.8733 354.45 96.3333 353.394 94.368C352.338 92.4027 351.81 90.1293 351.81 87.548C351.81 84.9373 352.338 82.664 353.394 80.728C354.45 78.7627 355.916 77.2373 357.794 76.152C359.671 75.0373 361.827 74.48 364.262 74.48C366.579 74.48 368.676 75.0227 370.554 76.108C372.46 77.1933 374.059 78.7187 375.35 80.684C376.67 82.62 377.594 84.908 378.122 87.548ZM357.618 87.548C357.618 89.22 357.955 90.7013 358.63 91.992C359.334 93.2533 360.287 94.2507 361.49 94.984C362.692 95.688 364.071 96.04 365.626 96.04C367.21 96.04 368.676 95.688 370.026 94.984C371.375 94.2507 372.563 93.2533 373.59 91.992C374.646 90.7013 375.482 89.22 376.098 87.548C375.482 85.876 374.646 84.4093 373.59 83.148C372.563 81.8573 371.375 80.86 370.026 80.156C368.676 79.4227 367.21 79.056 365.626 79.056C364.071 79.056 362.692 79.4227 361.49 80.156C360.287 80.86 359.334 81.8573 358.63 83.148C357.955 84.4093 357.618 85.876 357.618 87.548ZM387.763 75.096H393.439V100H387.763V75.096ZM408.927 75.096H414.603V100H408.927V75.096ZM390.975 85.172H411.303V89.572H390.975V85.172ZM420.677 100V75.096H426.309V97.14L424.593 96.744L441.621 75.096H449.013V100H443.381V77.648L445.141 78.088L427.893 100H420.677ZM468.691 100.616C465.787 100.616 463.205 100.073 460.947 98.988C458.688 97.8733 456.913 96.3333 455.623 94.368C454.332 92.4027 453.687 90.1147 453.687 87.504C453.687 84.9227 454.288 82.664 455.491 80.728C456.723 78.7627 458.409 77.2373 460.551 76.152C462.721 75.0373 465.2 74.48 467.987 74.48C470.773 74.48 473.179 75.1107 475.203 76.372C477.256 77.604 478.84 79.3493 479.955 81.608C481.069 83.8667 481.627 86.5213 481.627 89.572H458.175V85.216H478.767L475.907 86.844C475.819 85.2013 475.423 83.7933 474.719 82.62C474.044 81.4467 473.12 80.552 471.947 79.936C470.803 79.2907 469.439 78.968 467.855 78.968C466.183 78.968 464.716 79.3053 463.455 79.98C462.223 80.6547 461.255 81.608 460.551 82.84C459.847 84.0427 459.495 85.48 459.495 87.152C459.495 89 459.905 90.5987 460.727 91.948C461.577 93.2973 462.765 94.3387 464.291 95.072C465.845 95.776 467.679 96.128 469.791 96.128C471.697 96.128 473.648 95.8347 475.643 95.248C477.637 94.632 479.397 93.7813 480.923 92.696V96.832C479.397 98.0053 477.535 98.9293 475.335 99.604C473.164 100.279 470.949 100.616 468.691 100.616Z" fill="#023876"/>
<path d="M349.591 667.5L407.181 621H292L349.591 667.5Z" fill="#8FD2FC"/>
<path d="M276.75 31.902C276.523 33.9873 275.787 35.8347 274.54 37.444C273.316 39.0307 271.707 40.266 269.712 41.15C267.717 42.034 265.439 42.476 262.878 42.476C260.022 42.476 257.517 41.9207 255.364 40.81C253.211 39.6993 251.533 38.158 250.332 36.186C249.131 34.1913 248.53 31.8793 248.53 29.25C248.53 26.6207 249.131 24.32 250.332 22.348C251.533 20.3533 253.211 18.8007 255.364 17.69C257.517 16.5793 260.022 16.024 262.878 16.024C265.439 16.024 267.717 16.466 269.712 17.35C271.707 18.234 273.316 19.4693 274.54 21.056C275.787 22.6427 276.523 24.49 276.75 26.598H272.228C271.979 25.238 271.435 24.0707 270.596 23.096C269.78 22.1213 268.715 21.3733 267.4 20.852C266.085 20.308 264.567 20.036 262.844 20.036C260.849 20.036 259.115 20.41 257.642 21.158C256.191 21.906 255.069 22.9713 254.276 24.354C253.483 25.7367 253.086 27.3687 253.086 29.25C253.086 31.1313 253.483 32.7633 254.276 34.146C255.069 35.5287 256.191 36.594 257.642 37.342C259.115 38.09 260.849 38.464 262.844 38.464C264.567 38.464 266.085 38.2033 267.4 37.682C268.715 37.1607 269.78 36.4127 270.596 35.438C271.435 34.4407 271.979 33.262 272.228 31.902H276.75ZM286.178 24.286H290.598V42H286.178V24.286ZM278.188 22.756H298.588V26.224H278.188V22.756ZM318.53 42L317.782 34.86L318.666 32.378L317.782 29.93L318.53 22.756H323.086L322.066 32.378L323.086 42H318.53ZM319.89 32.378C319.46 34.3953 318.746 36.1633 317.748 37.682C316.751 39.2007 315.516 40.3793 314.042 41.218C312.592 42.0567 310.971 42.476 309.18 42.476C307.299 42.476 305.633 42.0567 304.182 41.218C302.732 40.3567 301.598 39.1667 300.782 37.648C299.966 36.1293 299.558 34.3727 299.558 32.378C299.558 30.3607 299.966 28.604 300.782 27.108C301.598 25.5893 302.732 24.4107 304.182 23.572C305.633 22.7107 307.299 22.28 309.18 22.28C310.971 22.28 312.592 22.6993 314.042 23.538C315.516 24.3767 316.751 25.5553 317.748 27.074C318.768 28.57 319.482 30.338 319.89 32.378ZM304.046 32.378C304.046 33.67 304.307 34.8147 304.828 35.812C305.372 36.7867 306.109 37.5573 307.038 38.124C307.968 38.668 309.033 38.94 310.234 38.94C311.458 38.94 312.592 38.668 313.634 38.124C314.677 37.5573 315.595 36.7867 316.388 35.812C317.204 34.8147 317.85 33.67 318.326 32.378C317.85 31.086 317.204 29.9527 316.388 28.978C315.595 27.9807 314.677 27.21 313.634 26.666C312.592 26.0993 311.458 25.816 310.234 25.816C309.033 25.816 307.968 26.0993 307.038 26.666C306.109 27.21 305.372 27.9807 304.828 28.978C304.307 29.9527 304.046 31.086 304.046 32.378ZM327.34 22.756H331.726V42H327.34V22.756ZM343.694 22.756H348.08V42H343.694V22.756ZM329.822 30.542H345.53V33.942H329.822V30.542ZM377.696 38.6V46.862H373.854V42H354.61V46.862H350.768V38.6H355.732L356.956 38.668H370.998L372.086 38.6H377.696ZM355.052 22.756H374.126V40.708H369.706V24.116L371.746 26.156H357.364L359.268 24.66C359.381 25.6573 359.449 26.6207 359.472 27.55C359.517 28.4567 359.54 29.3067 359.54 30.1C359.54 33.4093 359.086 36.0047 358.18 37.886C357.296 39.7673 356.049 40.708 354.44 40.708L352.638 39.178C354.496 37.818 355.426 34.5087 355.426 29.25C355.426 28.23 355.392 27.176 355.324 26.088C355.256 24.9773 355.165 23.8667 355.052 22.756ZM398.417 42L397.669 34.86L398.553 32.378L397.669 29.93L398.417 22.756H402.973L401.953 32.378L402.973 42H398.417ZM399.777 32.378C399.346 34.3953 398.632 36.1633 397.635 37.682C396.638 39.2007 395.402 40.3793 393.929 41.218C392.478 42.0567 390.858 42.476 389.067 42.476C387.186 42.476 385.52 42.0567 384.069 41.218C382.618 40.3567 381.485 39.1667 380.669 37.648C379.853 36.1293 379.445 34.3727 379.445 32.378C379.445 30.3607 379.853 28.604 380.669 27.108C381.485 25.5893 382.618 24.4107 384.069 23.572C385.52 22.7107 387.186 22.28 389.067 22.28C390.858 22.28 392.478 22.6993 393.929 23.538C395.402 24.3767 396.638 25.5553 397.635 27.074C398.655 28.57 399.369 30.338 399.777 32.378ZM383.933 32.378C383.933 33.67 384.194 34.8147 384.715 35.812C385.259 36.7867 385.996 37.5573 386.925 38.124C387.854 38.668 388.92 38.94 390.121 38.94C391.345 38.94 392.478 38.668 393.521 38.124C394.564 37.5573 395.482 36.7867 396.275 35.812C397.091 34.8147 397.737 33.67 398.213 32.378C397.737 31.086 397.091 29.9527 396.275 28.978C395.482 27.9807 394.564 27.21 393.521 26.666C392.478 26.0993 391.345 25.816 390.121 25.816C388.92 25.816 387.854 26.0993 386.925 26.666C385.996 27.21 385.259 27.9807 384.715 28.978C384.194 29.9527 383.933 31.086 383.933 32.378ZM407.227 22.756H411.647V29.454L411.443 30.134V34.01L411.647 35.2V47.61H407.227V22.756ZM409.947 32.378C410.378 30.338 411.092 28.57 412.089 27.074C413.086 25.5553 414.31 24.3767 415.761 23.538C417.234 22.6993 418.866 22.28 420.657 22.28C422.538 22.28 424.204 22.7107 425.655 23.572C427.106 24.4107 428.239 25.5893 429.055 27.108C429.871 28.604 430.279 30.3607 430.279 32.378C430.279 34.3727 429.871 36.1293 429.055 37.648C428.239 39.1667 427.106 40.3567 425.655 41.218C424.204 42.0567 422.538 42.476 420.657 42.476C418.866 42.476 417.246 42.0567 415.795 41.218C414.344 40.3793 413.109 39.2007 412.089 37.682C411.092 36.1633 410.378 34.3953 409.947 32.378ZM425.791 32.378C425.791 31.086 425.519 29.9527 424.975 28.978C424.454 27.9807 423.728 27.21 422.799 26.666C421.87 26.0993 420.804 25.816 419.603 25.816C418.402 25.816 417.268 26.0993 416.203 26.666C415.16 27.21 414.242 27.9807 413.449 28.978C412.656 29.9527 412.01 31.086 411.511 32.378C412.01 33.67 412.656 34.8147 413.449 35.812C414.242 36.7867 415.16 37.5573 416.203 38.124C417.268 38.668 418.402 38.94 419.603 38.94C420.804 38.94 421.87 38.668 422.799 38.124C423.728 37.5573 424.454 36.7867 424.975 35.812C425.519 34.8147 425.791 33.67 425.791 32.378ZM439.245 24.286H443.665V42H439.245V24.286ZM431.255 22.756H451.655V26.224H431.255V22.756Z" fill="#023876"/>
<rect x="43" y="132" width="615" height="440" rx="20" fill="white"/>
</svg>
